<?xml version="1.0" standalone="no"?><!DOCTYPE svg PUBLIC "-//W3C//DTD SVG 1.1//EN" "http://www.w3.org/Graphics/SVG/1.1/DTD/svg11.dtd"><svg t="1514359037945" class="icon" style="" viewBox="0 0 1024 1024" version="1.1" xmlns="http://www.w3.org/2000/svg" p-id="1679" xmlns:xlink="http://www.w3.org/1999/xlink" width="200" height="200"><defs><style type="text/css"></style></defs><path d="M752.97792 287.75424c0 0 2.52928-171.52512-58.54208-198.272-61.06624-26.74176-196.2496 89.19552-196.2496 89.19552s-156.83584-158.1568-175.2064-116.20352C277.57056 166.18496 240.64 246.41024 214.528 330.5984c-28.0832 166.07232 28.37504 291.10272 153.12384 366.97088-2.33984 5.46816-4.21888 12.47232-5.504 21.26848-3.05152 72.03328 56.68352 223.78496 80.59904 264.72448 30.85312 0 79.26272 3.0464 79.26272 3.0464s-77.26592-146.82624-81.93024-253.6192c143.70304 54.02112 282.57792 2.93888 393.71264-137.4976 50.48832-63.7952 87.08608-149.6064 129.46944-246.38976C978.51904 314.24512 752.97792 287.75424 752.97792 287.75424z" p-id="1680"></path><path d="M541.66016 950.87104c29.96736 10.71104 46.85824 6.30784 65.57696 2.70848 52.35712-88.51456 133.02272-107.29984 246.99392-111.52896 5.5808-19.34336 17.53088-33.26976 11.13088-52.5312C794.38848 787.35872 613.7088 785.43872 541.66016 950.87104z" p-id="1681"></path><path d="M76.30848 789.69856c-15.73888 17.98656-3.23072 49.00864 0 62.59712 121.05728-28.05248 210.3296 44.24192 241.73056 102.1696 15.744-0.1792 55.49568-5.12 69.7088-10.15296C385.5872 892.22144 268.79488 770.37056 76.30848 789.69856z" p-id="1682"></path></svg>