<?xml version="1.0" standalone="no"?><!DOCTYPE svg PUBLIC "-//W3C//DTD SVG 1.1//EN" "http://www.w3.org/Graphics/SVG/1.1/DTD/svg11.dtd"><svg t="1514359198286" class="icon" style="" viewBox="0 0 1024 1024" version="1.1" xmlns="http://www.w3.org/2000/svg" p-id="2459" xmlns:xlink="http://www.w3.org/1999/xlink" width="200" height="200"><defs><style type="text/css"></style></defs><path d="M927.623529 322.258824c-33.129412-48.188235-75.294118-90.352941-126.494117-129.505883-177.694118-123.482353-394.541176-117.458824-487.905883 15.058824-15.058824 21.082353-27.105882 45.176471-33.129411 69.270588-3.011765 3.011765-6.023529 3.011765-9.035294 6.023529-6.023529 6.023529-45.176471 54.211765-33.129412 162.635294 15.058824 138.541176 105.411765 310.211765 271.058823 508.988236 6.023529 6.023529 15.058824 12.047059 24.094118 12.047059 6.023529 0 12.047059-3.011765 18.070588-6.02353 12.047059-9.035294 15.058824-30.117647 3.011765-42.164706-162.635294-198.776471-225.882353-340.329412-249.976471-433.694117 33.129412 69.270588 87.341176 132.517647 159.62353 183.717647 54.211765 36.141176 111.435294 63.247059 165.647059 75.294117 36.141176 9.035294 66.258824-126.494118 66.258823-126.494117s150.588235 12.047059 174.682353-24.094118c24.094118-36.141176-36.141176-174.682353-36.141176-174.682353s114.447059-66.258824 93.364705-96.37647z" fill="" p-id="2460"></path><path d="M870.4 752.941176c-6.023529 0-159.623529 6.023529-289.129412 132.517648-12.047059 12.047059-12.047059 30.117647 0 42.164705 6.023529 6.023529 15.058824 9.035294 21.082353 9.035295 6.023529 0 15.058824-3.011765 21.082353-9.035295 114.447059-108.423529 246.964706-114.447059 249.976471-114.447058 18.070588 0 30.117647-15.058824 30.117647-30.117647-3.011765-18.070588-18.070588-30.117647-33.129412-30.117648zM150.588235 752.941176c-18.070588 0-30.117647 12.047059-30.117647 30.117648s12.047059 30.117647 30.117647 30.117647c0 0 135.529412 6.023529 249.976471 114.447058 6.023529 6.023529 12.047059 9.035294 21.082353 9.035295 9.035294 0 15.058824-3.011765 21.082353-9.035295 12.047059-12.047059 12.047059-30.117647 0-42.164705-132.517647-126.494118-286.117647-132.517647-292.141177-132.517648z" fill="" p-id="2461"></path></svg>