<?xml version="1.0" standalone="no"?><!DOCTYPE svg PUBLIC "-//W3C//DTD SVG 1.1//EN" "http://www.w3.org/Graphics/SVG/1.1/DTD/svg11.dtd"><svg t="1521514747436" class="icon" style="" viewBox="0 0 1024 1024" version="1.1" xmlns="http://www.w3.org/2000/svg" p-id="580" xmlns:xlink="http://www.w3.org/1999/xlink" width="200" height="200"><defs><style type="text/css"></style></defs><path d="M813.142857 365.714286q10.285714 104-74.857143 147.428571 66.857143 16 100 58.857143t25.714286 122.285714q-4 40.571429-18.571429 71.428571t-36.857143 50.857143-55.428571 33.428571-69.428571 19.714286-83.142857 8.571429l0 145.714286-88 0 0-143.428571q-45.714286 0-69.714286-0.571429l0 144-88 0 0-145.714286q-10.285714 0-30.857143 2.857143t-31.428571 2.857143l-114.285714 0 17.714286-104.571429 63.428571 0q28.571429 0 33.142857-29.142857l0-229.714286 9.142857 0q-3.428571-0.571429-9.142857-0.571429l0-164q-7.428571-38.857143-50.857143-38.857143l-63.428571 0 0-93.714286 121.142857 0.571429q36.571429 0 55.428571-0.571429l0-144 88 0 0 141.142857q46.857143-1.142857 69.714286-1.142857l0-140 88 0 0 144q45.142857 4 80 12.857143t64.571429 25.714286 47.142857 44.571429 20.857143 65.428571zm-122.857143 311.428571q0-20.571429-8.571429-36.571429t-21.142857-26.285714-32.857143-17.428571-37.428571-10.571429-42.285714-5.142857-39.428571-1.714286-36.857143 0.571429-27.142857 0.571429l0 193.142857q4.571429 0 21.142857 2.857143t27.428571 2.857143 30.285714-0.857143 33.428571-2.285714 32.571429-4.857143 31.714286-8 27.142857-12 22.571429-17.142857 14-22.857143 5.428571-29.142857zm-40.571429-272q0-18.857143-7.142857-33.428571t-17.428571-24-27.428571-16-31.428571-9.428571-35.142857-4.571429-33.142857-1.428571-30.857143 0.571429-22.571429 2.857143l0 175.428571q2.857143 0 19.714286 2.857143t26.571429 0 28.571429-1.142857 31.428571-3.142857 29.428571-6.285714 27.714286-10.571429 21.142857-15.428571 15.428571-22 5.142857-29.142857z" p-id="581"></path></svg>