<svg 
 xmlns="http://www.w3.org/2000/svg"
 xmlns:xlink="http://www.w3.org/1999/xlink"
 width="151px" height="116px">
<path fill-rule="evenodd"  fill="rgb(0, 0, 0)"
 d="M148.832,59.298 L126.178,81.806 C124.614,83.360 122.078,83.360 120.514,81.806 L119.098,80.399 C117.534,78.845 117.534,76.326 119.098,74.772 L132.488,61.469 L84.492,61.469 L97.843,74.772 C99.402,76.326 99.402,78.845 97.843,80.399 L96.431,81.806 C94.871,83.360 92.343,83.360 90.784,81.806 L69.607,60.705 C69.607,60.705 69.607,60.705 69.607,60.705 L68.195,59.298 C66.636,57.744 66.636,55.225 68.195,53.671 L90.784,31.163 C92.343,29.609 94.871,29.609 96.431,31.163 L97.843,32.570 C99.402,34.124 99.402,36.643 97.843,38.197 L84.492,51.500 L132.488,51.500 L119.098,38.197 C117.534,36.643 117.534,34.124 119.098,32.570 L120.514,31.163 C122.078,29.609 124.614,29.609 126.178,31.163 L148.832,53.671 C150.396,55.225 150.396,57.744 148.832,59.298 ZM102.000,17.034 C102.000,15.359 100.641,14.000 98.966,14.000 L17.034,14.000 C15.359,14.000 14.000,15.359 14.000,17.034 L14.000,98.966 C14.000,100.641 15.359,102.000 17.034,102.000 L98.966,102.000 C100.641,102.000 102.000,100.641 102.000,98.966 C102.000,98.966 102.000,95.499 102.000,90.000 L116.000,90.000 C116.000,102.904 116.000,112.000 116.000,112.000 C116.000,114.209 114.209,116.000 112.000,116.000 L4.000,116.000 C1.791,116.000 0.000,114.209 0.000,112.000 L0.000,4.000 C0.000,1.791 1.791,0.000 4.000,0.000 L112.000,0.000 C114.209,0.000 116.000,1.791 116.000,4.000 C116.000,4.000 116.000,13.096 116.000,26.000 L102.000,26.000 C102.000,20.500 102.000,17.034 102.000,17.034 Z"/>
</svg>
