<?xml version="1.0" standalone="no"?><!DOCTYPE svg PUBLIC "-//W3C//DTD SVG 1.1//EN" "http://www.w3.org/Graphics/SVG/1.1/DTD/svg11.dtd"><svg t="1521711705214" class="icon" style="" viewBox="0 0 1024 1024" version="1.1" xmlns="http://www.w3.org/2000/svg" p-id="12931" xmlns:xlink="http://www.w3.org/1999/xlink" width="200" height="200"><defs><style type="text/css"></style></defs><path d="M596.043115 475.956086l-64.525596 0L531.517519 301.780161l137.291876 0c11.31572 0 20.491707-9.17394 20.491707-20.491707 0-11.316743-9.174963-20.491707-20.491707-20.491707L531.517519 260.796748l0-98.358145c0-11.316743-9.174963-20.491707-20.491707-20.491707-11.31572 0-20.491707 9.17394-20.491707 20.491707l0 98.358145-50.225915 0c-35.056424 0-67.480904 10.897188-91.302449 30.682813-27.853371 23.13593-42.575678 56.69321-42.575678 97.045243 0 40.257889 14.895245 73.930803 43.077098 97.375771 24.054859 20.014846 56.30333 31.036877 90.801029 31.036877l50.225915 0 0 174.175925L367.587959 691.113377c-11.316743 0-20.491707 9.174963-20.491707 20.491707 0 11.316743 9.17394 20.491707 20.491707 20.491707l122.94717 0 0 116.800169c0 11.31572 9.174963 20.491707 20.491707 20.491707 11.316743 0 20.491707-9.174963 20.491707-20.491707l0-116.800169 64.525596 0c37.97694 0 70.883397-11.044544 95.160313-31.939433 26.668383-22.952758 40.764426-56.07718 40.764426-95.788623C731.967854 528.761756 676.072823 475.956086 596.043115 475.956086zM440.309214 475.956086c-46.238091 0-92.894713-27.034726-92.894713-87.430258 0-64.027246 50.04172-86.745666 92.894713-86.745666l50.225915 0 0 174.175925L440.309214 475.956086zM596.043115 691.115424l-64.525596 0L531.517519 516.939499l64.525596 0c70.077032 0 94.942349 47.097668 94.942349 87.430258C690.985464 624.718201 684.139545 691.115424 596.043115 691.115424z" p-id="12932"></path><path d="M827.50679 196.128913C743.134171 111.756293 630.956276 65.288982 511.63468 65.288982c-119.320573 0-231.498468 46.466288-315.871087 130.838907S64.925708 392.679427 64.925708 512c0 119.319549 46.465265 231.499491 130.837884 315.872111s196.550515 130.837884 315.871087 130.837884c119.321596 0 231.499491-46.465265 315.872111-130.837884s130.837884-196.552561 130.837884-315.872111C958.344674 392.679427 911.87941 280.500509 827.50679 196.128913zM511.63468 917.727605c-223.718271 0-405.726581-182.00831-405.726581-405.727605S287.916409 106.272395 511.63468 106.272395c223.719294 0 405.727605 182.009334 405.727605 405.728628S735.353974 917.727605 511.63468 917.727605z" p-id="12933"></path></svg>