<svg 
 xmlns="http://www.w3.org/2000/svg"
 xmlns:xlink="http://www.w3.org/1999/xlink"
 width="109px" height="37px">
<path fill-rule="evenodd"  fill="rgb(0, 0, 0)"
 d="M97.797,10.990 C97.203,10.178 96.476,9.553 95.617,9.115 C94.758,8.678 93.797,8.459 92.734,8.459 C90.328,8.459 88.484,9.427 87.203,11.362 C86.234,12.798 85.750,15.053 85.750,18.127 C85.750,21.935 86.328,24.546 87.484,25.958 C88.641,27.370 90.265,28.076 92.359,28.076 C94.390,28.076 95.926,27.506 96.965,26.365 C98.004,25.225 98.758,23.568 99.227,21.396 L108.531,24.209 C107.906,26.819 106.922,28.998 105.578,30.748 C104.234,32.498 102.566,33.818 100.574,34.709 C98.582,35.600 96.047,36.045 92.969,36.045 C89.234,36.045 86.184,35.502 83.816,34.417 C81.449,33.332 79.406,31.423 77.687,28.691 C75.969,25.958 75.109,22.460 75.109,18.197 C75.109,12.514 76.621,8.146 79.645,5.093 C82.668,2.040 86.945,0.514 92.477,0.514 C96.804,0.514 100.207,1.389 102.684,3.139 C105.160,4.889 107.000,7.576 108.203,11.201 L98.828,13.287 C98.500,12.240 98.156,11.475 97.797,10.990 ZM60.719,35.459 L50.102,35.459 L50.102,9.584 L39.273,9.584 L39.273,1.100 L71.547,1.100 L71.547,9.584 L60.719,9.584 L60.719,35.459 ZM28.082,33.900 C25.527,35.330 22.344,36.045 18.531,36.045 C14.656,36.045 11.449,35.428 8.910,34.193 C6.371,32.959 4.312,31.006 2.734,28.334 C1.156,25.662 0.367,22.319 0.367,18.303 C0.367,12.693 1.929,8.326 5.055,5.201 C8.180,2.076 12.531,0.514 18.109,0.514 C23.828,0.514 28.234,2.049 31.328,5.119 C34.422,8.189 35.969,12.490 35.969,18.021 C35.969,22.037 35.293,25.330 33.941,27.900 C32.590,30.471 30.637,32.471 28.082,33.900 ZM23.395,10.791 C22.090,9.299 20.320,8.553 18.086,8.553 C15.945,8.553 14.226,9.311 12.930,10.826 C11.633,12.342 10.984,14.850 10.984,18.350 C10.984,21.818 11.629,24.311 12.918,25.826 C14.207,27.342 15.961,28.100 18.180,28.100 C20.461,28.100 22.226,27.358 23.477,25.873 C24.726,24.389 25.352,21.725 25.352,17.881 C25.352,14.646 24.699,12.283 23.395,10.791 Z"/>
</svg>
