<svg 
    xmlns="http://www.w3.org/2000/svg" viewBox="0 0 28 28" width="28" height="28">
    <g fill-rule="nonzero">
        <path d="M8.354 18.354l10-10-.707-.707-10 10zM12.354 25.354l5-5-.707-.707-5 5z"></path>
        <path d="M20.354 17.354l5-5-.707-.707-5 5z"></path>
        <path d="M19.5 8c.828 0 1.5-.672 1.5-1.5s-.672-1.5-1.5-1.5-1.5.672-1.5 1.5.672 1.5 1.5 1.5zm0 1c-1.381 0-2.5-1.119-2.5-2.5s1.119-2.5 2.5-2.5 2.5 1.119 2.5 2.5-1.119 2.5-2.5 2.5zM6.5 21c.828 0 1.5-.672 1.5-1.5s-.672-1.5-1.5-1.5-1.5.672-1.5 1.5.672 1.5 1.5 1.5zm0 1c-1.381 0-2.5-1.119-2.5-2.5s1.119-2.5 2.5-2.5 2.5 1.119 2.5 2.5-1.119 2.5-2.5 2.5zM18.5 20c.828 0 1.5-.672 1.5-1.5s-.672-1.5-1.5-1.5-1.5.672-1.5 1.5.672 1.5 1.5 1.5zm0 1c-1.381 0-2.5-1.119-2.5-2.5s1.119-2.5 2.5-2.5 2.5 1.119 2.5 2.5-1.119 2.5-2.5 2.5z"></path>
    </g>
</svg>