<?xml version="1.0" standalone="no"?><!DOCTYPE svg PUBLIC "-//W3C//DTD SVG 1.1//EN" "http://www.w3.org/Graphics/SVG/1.1/DTD/svg11.dtd"><svg t="1514537292844" class="icon" style="" viewBox="0 0 1024 1024" version="1.1" xmlns="http://www.w3.org/2000/svg" p-id="3870" xmlns:xlink="http://www.w3.org/1999/xlink" width="200" height="200"><defs><style type="text/css"></style></defs><path d="M512 32C246.912 32 32 246.912 32 512s214.912 480 480 480c265.088 0 480-214.912 480-480S777.088 32 512 32z m-117.344 680H297.312v-313.984h97.344z m-49.312-351.328a48.672 48.672 0 1 1 52.672-48.704 48.64 48.64 0 0 1-52.864 47.968zM749.344 712h-97.344v-173.344c0-40-13.984-66.656-49.344-66.656a53.344 53.344 0 0 0-49.888 36.288 66.144 66.144 0 0 0-0.032 24.8l-0.064 178.912h-100v-214.016-100h84.672l4.672 43.328a112.736 112.736 0 0 1 96.8-50.656c66.528 0 111.872 42.656 111.872 133.344z" fill="" p-id="3871"></path></svg>