<?xml version="1.0" standalone="no"?><!DOCTYPE svg PUBLIC "-//W3C//DTD SVG 1.1//EN" "http://www.w3.org/Graphics/SVG/1.1/DTD/svg11.dtd"><svg t="1527565195781" class="icon" style="" viewBox="0 0 1024 1024" version="1.1" xmlns="http://www.w3.org/2000/svg" p-id="2162" xmlns:xlink="http://www.w3.org/1999/xlink" width="200" height="200"><defs><style type="text/css"></style></defs><path d="M800 544l-576 0C204.8 544 192 531.2 192 512l0 0c0-19.2 12.8-32 32-32l576 0C819.2 480 832 492.8 832 512l0 0C832 531.2 819.2 544 800 544z" p-id="2163"></path><path d="M800 352l-576 0C204.8 352 192 339.2 192 320l0 0c0-19.2 12.8-32 32-32l576 0C819.2 288 832 300.8 832 320l0 0C832 339.2 819.2 352 800 352z" p-id="2164"></path><path d="M800 736l-576 0C204.8 736 192 723.2 192 704l0 0c0-19.2 12.8-32 32-32l576 0c19.2 0 32 12.8 32 32l0 0C832 723.2 819.2 736 800 736z" p-id="2165"></path></svg>