<?xml version="1.0" standalone="no"?><!DOCTYPE svg PUBLIC "-//W3C//DTD SVG 1.1//EN" "http://www.w3.org/Graphics/SVG/1.1/DTD/svg11.dtd"><svg t="1523091121094" class="icon" style="" viewBox="0 0 1024 1024" version="1.1" xmlns="http://www.w3.org/2000/svg" p-id="2383" xmlns:xlink="http://www.w3.org/1999/xlink" width="200" height="200"><defs><style type="text/css"></style></defs><path d="M519.314286 899.657143H512c-65.828571 0-128-47.542857-146.285714-109.714286H197.485714c-10.971429 0-18.285714-3.657143-25.6-10.971428-7.314286-7.314286-10.971429-18.285714-10.971428-25.6 3.657143-62.171429 32.914286-124.342857 80.457143-164.571429v-146.285714C241.371429 340.114286 307.2 252.342857 402.285714 219.428571c10.971429-51.2 58.514286-91.428571 113.371429-91.428571 58.514286 0 106.057143 40.228571 113.371428 95.085714 95.085714 32.914286 160.914286 120.685714 160.914286 223.085715v146.285714c47.542857 40.228571 73.142857 95.085714 80.457143 157.257143V760.685714c0 18.285714-14.628571 36.571429-36.571429 36.571429-3.657143 0-10.971429 0-18.285714-3.657143h-149.942857c-18.285714 62.171429-76.8 106.057143-146.285714 106.057143z m-73.142857-109.714286c14.628571 21.942857 40.228571 36.571429 65.828571 36.571429h7.314286c29.257143 0 51.2-14.628571 65.828571-36.571429h-138.971428z m-204.8-73.142857h548.571428c-10.971429-32.914286-29.257143-58.514286-58.514286-80.457143-7.314286-7.314286-14.628571-18.285714-14.628571-29.257143v-164.571428c0-73.142857-54.857143-142.628571-128-157.257143-18.285714-3.657143-29.257143-18.285714-29.257143-36.571429v-7.314285c0-25.6-18.285714-43.885714-43.885714-43.885715s-43.885714 18.285714-43.885714 43.885715v3.657142c0 18.285714-10.971429 32.914286-29.257143 36.571429-73.142857 14.628571-128 80.457143-128 157.257143v164.571428c0 10.971429-3.657143 21.942857-14.628572 29.257143-29.257143 21.942857-47.542857 51.2-58.514285 84.114286z" fill="" p-id="2384"></path></svg>