<svg
 xmlns="http://www.w3.org/2000/svg"
 xmlns:xlink="http://www.w3.org/1999/xlink"
 width="55px" height="61px">
<path fill-rule="evenodd"
 d="M51.000,55.000 L33.501,55.000 L27.500,61.001 L21.499,55.000 L4.000,55.000 C1.791,55.000 -0.000,53.209 -0.000,51.000 L-0.000,4.000 C-0.000,1.791 1.791,0.000 4.000,0.000 L51.000,0.000 C53.209,0.000 55.000,1.791 55.000,4.000 L55.000,51.000 C55.000,53.209 53.209,55.000 51.000,55.000 ZM52.000,7.000 C52.000,4.791 50.209,3.000 48.000,3.000 L7.000,3.000 C4.791,3.000 3.000,4.791 3.000,7.000 L3.000,47.687 C3.000,49.897 4.791,51.688 7.000,51.688 L22.152,51.688 L27.500,57.001 L32.848,51.688 L48.000,51.688 C50.209,51.688 52.000,49.897 52.000,47.687 L52.000,7.000 ZM44.000,20.000 L11.000,20.000 C9.895,20.000 9.000,19.105 9.000,18.000 C9.000,16.895 9.895,16.000 11.000,16.000 L44.000,16.000 C45.105,16.000 46.000,16.895 46.000,18.000 C46.000,19.105 45.105,20.000 44.000,20.000 ZM44.000,12.000 L11.000,12.000 C9.895,12.000 9.000,11.105 9.000,10.000 C9.000,8.895 9.895,8.000 11.000,8.000 L44.000,8.000 C45.105,8.000 46.000,8.895 46.000,10.000 C46.000,11.105 45.105,12.000 44.000,12.000 ZM11.000,24.000 L29.000,24.000 C30.105,24.000 31.000,24.895 31.000,26.000 C31.000,27.105 30.105,28.000 29.000,28.000 L11.000,28.000 C9.895,28.000 9.000,27.105 9.000,26.000 C9.000,24.895 9.895,24.000 11.000,24.000 Z"/>
</svg>
