<svg xmlns="http://www.w3.org/2000/svg" 
    xmlns:xlink="http://www.w3.org/1999/xlink" width="55px" height="61px">
    <path fill-rule="evenodd" d="M51.000,55.000 L33.501,55.000 L27.500,61.001 L21.499,55.000 L4.000,55.000 C1.791,55.000 -0.000,53.209 -0.000,51.000 L-0.000,4.000 C-0.000,1.791 1.791,0.000 4.000,0.000 L51.000,0.000 C53.209,0.000 55.000,1.791 55.000,4.000 L55.000,51.000 C55.000,53.209 53.209,55.000 51.000,55.000 ZM52.000,7.000 C52.000,4.791 50.209,3.000 48.000,3.000 L7.000,3.000 C4.791,3.000 3.000,4.791 3.000,7.000 L3.000,47.687 C3.000,49.897 4.791,51.688 7.000,51.688 L22.152,51.688 L27.500,57.001 L32.848,51.688 L48.000,51.688 C50.209,51.688 52.000,49.897 52.000,47.687 L52.000,7.000 ZM44.625,30.143 C44.201,30.305 43.801,30.386 43.426,30.386 C42.827,30.386 42.271,30.316 41.759,30.174 C41.247,30.033 40.665,29.822 40.011,29.543 C39.358,29.265 38.819,29.054 38.394,28.913 C37.970,28.771 37.499,28.701 36.983,28.701 C35.809,28.701 34.677,29.271 33.586,30.411 L33.586,27.190 C34.136,26.574 34.712,26.134 35.316,25.872 C35.919,25.610 36.596,25.479 37.345,25.479 C37.920,25.479 38.467,25.554 38.987,25.704 C39.507,25.853 40.042,26.039 40.592,26.259 C41.141,26.480 41.678,26.686 42.203,26.877 C42.727,27.069 43.135,27.165 43.426,27.165 C43.951,27.165 44.515,27.011 45.118,26.703 C45.722,26.395 46.298,25.949 46.848,25.366 L46.848,28.726 C46.598,28.984 46.271,29.244 45.868,29.506 C45.464,29.768 45.050,29.981 44.625,30.143 ZM28.741,37.217 C28.209,37.217 27.769,37.027 27.424,36.649 C27.079,36.270 26.906,35.706 26.906,34.957 L26.906,20.534 C26.906,19.785 27.076,19.223 27.418,18.848 C27.759,18.474 28.200,18.286 28.741,18.286 C29.299,18.286 29.751,18.472 30.096,18.842 C30.442,19.212 30.615,19.776 30.615,20.534 L30.615,34.957 C30.615,35.714 30.442,36.280 30.096,36.655 C29.751,37.030 29.299,37.217 28.741,37.217 ZM20.899,37.217 C20.342,37.217 19.896,37.027 19.563,36.649 C19.230,36.270 19.064,35.706 19.064,34.957 L19.064,28.800 L11.060,28.800 L11.060,34.957 C11.060,35.714 10.885,36.280 10.535,36.655 C10.185,37.030 9.736,37.217 9.186,37.217 C8.629,37.217 8.183,37.027 7.850,36.649 C7.517,36.270 7.351,35.706 7.351,34.957 L7.351,20.534 C7.351,19.785 7.515,19.223 7.844,18.848 C8.173,18.474 8.620,18.286 9.186,18.286 C9.744,18.286 10.196,18.472 10.541,18.842 C10.887,19.212 11.060,19.776 11.060,20.534 L11.060,25.779 L19.064,25.779 L19.064,20.534 C19.064,19.785 19.232,19.223 19.570,18.848 C19.907,18.474 20.350,18.286 20.899,18.286 C21.457,18.286 21.909,18.472 22.254,18.842 C22.600,19.212 22.773,19.776 22.773,20.534 L22.773,34.957 C22.773,35.714 22.598,36.280 22.248,36.655 C21.898,37.030 21.449,37.217 20.899,37.217 Z"/>
</svg>
