<?xml version="1.0" standalone="no"?><!DOCTYPE svg PUBLIC "-//W3C//DTD SVG 1.1//EN" "http://www.w3.org/Graphics/SVG/1.1/DTD/svg11.dtd"><svg t="1522292807972" class="icon" style="" viewBox="0 0 1024 1024" version="1.1" xmlns="http://www.w3.org/2000/svg" p-id="2412" xmlns:xlink="http://www.w3.org/1999/xlink" width="200" height="200"><defs><style type="text/css"></style></defs><path d="M506.88 1006.08C371.2 1006.08 240.64 967.68 128 896c-46.08-28.16-69.12-97.28-48.64-143.36 48.64-115.2 153.6-202.24 286.72-240.64-76.8-46.08-128-130.56-128-227.84C238.08 138.24 355.84 17.92 504.32 17.92 647.68 17.92 768 138.24 768 284.16c0 92.16-48.64 174.08-120.32 222.72 135.68 33.28 243.2 120.32 296.96 235.52 20.48 46.08 0 115.2-43.52 145.92-117.76 76.8-253.44 117.76-394.24 117.76" fill="" p-id="2413"></path></svg>