<?xml version="1.0" standalone="no"?><!DOCTYPE svg PUBLIC "-//W3C//DTD SVG 1.1//EN" "http://www.w3.org/Graphics/SVG/1.1/DTD/svg11.dtd"><svg t="1514451456950" class="icon" style="" viewBox="0 0 1024 1024" version="1.1" xmlns="http://www.w3.org/2000/svg" p-id="2009" xmlns:xlink="http://www.w3.org/1999/xlink" width="200" height="200"><defs><style type="text/css"></style></defs><path d="M863.931683 562.548902 863.931683 320.106254c-74.478663 0-127.972703 0-127.972703 0-70.673731 0-127.977703-57.300971-127.977703-127.974703 0 0-1.504973-51.351078-0.894984-127.977703L224.052169 64.153848c-35.321366 0-63.988851 28.666485-63.988851 63.988851l0 767.859217c0 35.354365 28.666485 63.988851 63.988851 63.988851l293.546731 0c0 0 31.564433-0.005 31.839428 30.549452 0.319994 35.359365-31.839428 33.4394-31.839428 33.4394L224.052169 1023.97962c-70.675731 0-127.977703-57.298971-127.977703-127.977703L96.074466 128.1427c0-70.675731 57.300971-127.977703 127.977703-127.977703l383.930108 0c42.839231-0.671988 59.863925 0.926983 63.988851 0.926983L671.971129 0.164997l255.949406 255.952406c0 47.001156 0 54.006031 0 63.988851l0 242.442648c0 0-6.754879 19.414652-30.219458 19.414652C871.246552 581.963554 863.931683 562.548902 863.931683 562.548902zM671.970129 64.153848c0 76.178633 0 127.977703 0 127.977703 0 35.351365 28.664485 63.985851 63.988851 63.985851l127.972703 0L671.970129 64.153848zM535.008587 614.426971 320.032446 614.426971c-17.659683 0-31.994426-14.329743-31.994426-31.994426 0-17.659683 14.334743-31.994426 31.994426-31.994426l214.975141 0c17.659683 0 31.994426 14.334743 31.994426 31.994426C567.003013 600.097228 552.66827 614.426971 535.008587 614.426971zM703.964554 422.461417 320.032446 422.461417c-17.659683 0-31.994426-14.329743-31.994426-31.989426 0-17.664683 14.334743-31.999426 31.994426-31.999426l383.932108 0c17.659683 0 31.994426 14.334743 31.994426 31.999426C735.95898 408.131674 721.624237 422.461417 703.964554 422.461417z" p-id="2010"></path><path d="M970.231775 807.716701c0 119.447456-96.817462 216.264918-216.264918 216.264918-119.432096 0-216.249558-96.817462-216.249558-216.264918 0-119.432096 96.817462-216.249558 216.249558-216.249558C873.414313 591.462023 970.231775 688.284605 970.231775 807.716701zM889.403786 800.436192c0-19.711646-15.963873-35.68064-35.68064-35.68064l-199.502339 0c-19.716766 0-35.68064 15.968993-35.68064 35.68064l0 0c0 19.706526 15.963873 35.685759 35.68064 35.685759l199.502339 0C873.439912 836.121952 889.403786 820.142718 889.403786 800.436192L889.403786 800.436192z" p-id="2011"></path><path d="M545.279403 1029.101528" p-id="2012"></path><path d="M927.920854 575.139756" p-id="2013"></path></svg>