<!-- Generated by IcoMoon.io -->
<svg version="1.1" xmlns="http://www.w3.org/2000/svg" width="768" height="768" viewBox="0 0 768 768">
<title></title>
<g id="icomoon-ignore">
</g>
<path fill="#000" d="M630.4 137.6c-12.8-12.8-32-12.8-44.8 0l-448 448c-12.8 12.8-12.8 32 0 44.8 6.4 6.4 12.8 9.6 22.4 9.6s16-3.2 22.4-9.6l448-448c12.8-12.8 12.8-32 0-44.8z"></path>
<path fill="#000" d="M208 320c60.8 0 112-51.2 112-112s-51.2-112-112-112-112 51.2-112 112 51.2 112 112 112zM208 160c25.6 0 48 22.4 48 48s-22.4 48-48 48-48-22.4-48-48 22.4-48 48-48z"></path>
<path fill="#000" d="M560 448c-60.8 0-112 51.2-112 112s51.2 112 112 112 112-51.2 112-112-51.2-112-112-112zM560 608c-25.6 0-48-22.4-48-48s22.4-48 48-48 48 22.4 48 48-22.4 48-48 48z"></path>
</svg>
