<?xml version="1.0" standalone="no"?><!DOCTYPE svg PUBLIC "-//W3C//DTD SVG 1.1//EN" "http://www.w3.org/Graphics/SVG/1.1/DTD/svg11.dtd"><svg t="1514359023281" class="icon" style="" viewBox="0 0 1024 1024" version="1.1" xmlns="http://www.w3.org/2000/svg" p-id="1006" xmlns:xlink="http://www.w3.org/1999/xlink" width="200" height="200"><defs><style type="text/css"></style></defs><path d="M542.117647 722.823529c168.658824-18.070588 301.176471-171.670588 301.176471-361.411764 0-60.235294-12.047059-117.458824-36.141177-165.647059-15.058824-30.117647-159.623529 15.058824-159.623529 15.058823s-87.341176-120.470588-135.529412-120.470588-138.541176 120.470588-138.541176 120.470588-141.552941-45.176471-156.611765-15.058823c-24.094118 48.188235-36.141176 105.411765-36.141177 165.647059 0 189.741176 132.517647 343.341176 301.176471 361.411764v183.717647c0 15.058824 12.047059 30.117647 30.117647 30.117648s30.117647-12.047059 30.117647-30.117648V722.823529z" fill="" p-id="1007"></path><path d="M602.352941 906.541176c-9.035294 0-15.058824-3.011765-21.082353-9.035294-12.047059-12.047059-12.047059-30.117647 0-42.164706 129.505882-123.482353 283.105882-132.517647 289.129412-132.517647 15.058824 0 30.117647 12.047059 30.117647 30.117647s-12.047059 30.117647-30.117647 30.117648c0 0-135.529412 6.023529-249.976471 114.447058-3.011765 6.023529-12.047059 9.035294-18.070588 9.035294zM418.635294 906.541176c-6.023529 0-15.058824-3.011765-21.082353-9.035294-114.447059-108.423529-246.964706-114.447059-249.97647-114.447058-18.070588 0-30.117647-15.058824-30.117647-30.117648 0-18.070588 15.058824-30.117647 30.117647-30.117647 6.023529 0 159.623529 6.023529 289.129411 132.517647 12.047059 12.047059 12.047059 30.117647 0 42.164706 0 6.023529-9.035294 9.035294-18.070588 9.035294z" fill="" p-id="1008"></path></svg>