<?xml version="1.0" standalone="no"?><!DOCTYPE svg PUBLIC "-//W3C//DTD SVG 1.1//EN" "http://www.w3.org/Graphics/SVG/1.1/DTD/svg11.dtd"><svg t="1523095039237" class="icon" style="" viewBox="0 0 1024 1024" version="1.1" xmlns="http://www.w3.org/2000/svg" p-id="3747" xmlns:xlink="http://www.w3.org/1999/xlink" width="200" height="200"><defs><style type="text/css"></style></defs><path d="M672.235971 64.055993l-479.940007 0c-74.230721 0-63.992001 36.347457-63.992001 95.988001l0 703.912011c0 79.350081-10.23872 95.988001 63.992001 95.988001l607.924009 0c87.925009 0 95.988001-19.453568 95.988001-95.988001l0-575.928009C761.888764 156.588426 851.605549 222.372203 672.235971 64.055993zM832.215973 831.960005c0 57.976753-2.23972 63.992001-63.992001 63.992001l-511.936008 0c-51.257593 0-63.992001-0.447944-63.992001-63.992001L192.295963 192.039995c0-89.524809-1.023872-63.992001 63.992001-63.992001l383.952006 0c0.447944 82.357705 0 127.984002 0 127.984002 0 66.807649 28.988376 95.988001 95.988001 95.988001l95.988001 0L832.215973 831.960005zM320.279965 512l415.948006 0 0-63.992001-415.948006 0C320.279965 448.007999 320.279965 512 320.279965 512zM320.279965 671.980002l415.948006 0 0-63.992001-415.948006 0C320.279965 607.988001 320.279965 671.980002 320.279965 671.980002z" p-id="3748"></path></svg>