<!-- Generated by IcoMoon.io -->
<svg version="1.1" xmlns="http://www.w3.org/2000/svg" width="1024" height="1024" viewBox="0 0 1024 1024">
<title></title>
<g id="icomoon-ignore">
</g>
<path fill="#000" d="M435.726 472.769l115.764-37.612 37.612 115.765-115.764 37.611z"></path>
<path fill="#000" d="M512 0c-282.744 0-512 229.256-512 512s229.256 512 512 512 512-229.256 512-512-229.256-512-512-512zM776.116 598.284l-57.484 18.628 18.859 57.831c8.803 26.969-6.059 56-33.028 64.803s-56-6.059-64.803-33.028l-18.859-57.831-115.656 37.597 18.859 57.831c8.803 26.969-6.059 56-33.028 64.797s-56-6.059-64.797-33.028l-18.859-57.831-58.287 18.969c-26.969 8.803-56-6.059-64.803-33.028s6.059-56 33.028-64.803l58.287-18.969-37.597-115.772-58.287 18.969c-26.969 8.797-56-6.059-64.797-33.028s6.059-56 33.028-64.797l58.287-18.969-18.859-57.831c-8.797-26.969 6.059-56 33.028-64.797s56 6.059 64.803 33.028l18.859 57.831 115.772-37.603-18.859-57.831c-8.803-26.969 6.059-56 33.028-64.797s56 6.059 64.797 33.028l18.859 57.831 57.484-18.628c26.969-8.797 56 6.059 64.803 33.028s-6.059 56-33.028 64.797l-57.6 18.744 37.597 115.772 57.484-18.628c26.969-8.797 56 6.059 64.803 33.028 8.687 26.859-6.059 55.884-33.028 64.687z"></path>
</svg>
