<?xml version="1.0" standalone="no"?><!DOCTYPE svg PUBLIC "-//W3C//DTD SVG 1.1//EN" "http://www.w3.org/Graphics/SVG/1.1/DTD/svg11.dtd"><svg t="1514537076794" class="icon" style="" viewBox="0 0 1024 1024" version="1.1" xmlns="http://www.w3.org/2000/svg" p-id="1423" xmlns:xlink="http://www.w3.org/1999/xlink" width="200" height="200"><defs><style type="text/css"></style></defs><path d="M512 1024c282.8 0 512-229.2 512-512S794.8 0 512 0 0 229.2 0 512 229.2 1024 512 1024zM361.5 380.9c98.4 49.7 181.6 46.8 181.6 46.8S511.6 317.8 609.1 269s164.6 33.4 164.6 33.4 17-4.7 29.7-9.3 31-13 31-13l-30 53.6 46.3-4.9c0 0-5.7 8.3-24.2 25.3-18.5 17-26.1 25.7-26.1 25.7s6.6 132.3-63.1 234.2-159.7 163-290.5 175.9c-130.8 12.9-216-40.1-216-40.1s57.2-3.3 93.7-17.2c36.5-13.9 88.9-50.7 88.9-50.7s-74.5-22.9-101.3-48.7c-26.8-25.8-33.5-41.1-33.5-41.1l73.6-1c0 0-77.4-41.1-99.4-73.6s-24.8-64-24.8-64l56.6 22.8c0 0-47-63.9-53.7-113.6-6.7-49.7 8.6-76.5 8.6-76.5S263.1 331.2 361.5 380.9z" p-id="1424"></path></svg>