<?xml version="1.0" standalone="no"?><!DOCTYPE svg PUBLIC "-//W3C//DTD SVG 1.1//EN" "http://www.w3.org/Graphics/SVG/1.1/DTD/svg11.dtd"><svg t="1542686731241" class="icon" style="" viewBox="0 0 1024 1024" version="1.1" xmlns="http://www.w3.org/2000/svg" p-id="1563" xmlns:xlink="http://www.w3.org/1999/xlink" width="200" height="200"><defs><style type="text/css"></style></defs><path d="M611.27612939 359.30284452v-119.65421464h273.62941513v-182.3302313H139.7983038v182.3302313h273.66293121v119.55366489c-222.41606957 10.22255947-389.66383683 54.29687052-389.66383686 107.05197854 0 52.75510804 167.31480097 96.79590302 389.66383686 107.08549463v383.29568586h197.88192807V573.30625028c222.01387052-10.25607554 388.92647246-54.26335444 388.92647246-106.98494483 0-52.72159041-166.91260192-96.72886931-388.92647246-106.98494487m0 181.5258348v-0.10054975c-5.59727051 0.33516533-34.25395217 2.07802891-98.13656596 2.07802732-51.07927819 0-86.97554258-1.47473034-99.64481235-2.11154498v0.16758346c-196.50774748-8.71431306-343.17633155-42.93474762-343.17633156-83.89201606 0-40.92375241 146.70210013-75.07715482 343.17633156-83.82498395v133.59711525c12.87036929 0.90494785 49.67158154 3.08352651 100.4827265 3.08352492 61.00018838 0 91.70138129-2.54726006 97.33216786-3.08352492v-133.59711525c196.10554845 8.71431306 342.43896718 43.0017813 342.43896718 83.79146633s-146.40045085 75.07715482-342.43896718 83.79146788" fill="#515151" p-id="1564"></path></svg>