<?xml version="1.0" standalone="no"?><!DOCTYPE svg PUBLIC "-//W3C//DTD SVG 1.1//EN" "http://www.w3.org/Graphics/SVG/1.1/DTD/svg11.dtd"><svg t="1521711580463" class="icon" style="" viewBox="0 0 1024 1024" version="1.1" xmlns="http://www.w3.org/2000/svg" p-id="12115" xmlns:xlink="http://www.w3.org/1999/xlink" width="200" height="200"><defs><style type="text/css"></style></defs><path d="M837.174987 152.628166 183.77249 152.628166c-66.052368 0-119.79027 53.748135-119.79027 119.79027L63.98222 751.58054c0 66.042135 53.737902 119.79027 119.79027 119.79027l653.402497 0c66.052368 0 119.79027-53.748135 119.79027-119.79027L956.965258 272.418436C956.965258 206.376301 903.227356 152.628166 837.174987 152.628166zM891.62511 588.230172 652.043546 588.230172c-42.028209 0-76.230172-34.201963-76.230172-76.230172s34.201963-76.230172 76.230172-76.230172l239.581564 0L891.62511 588.230172zM891.62511 370.429681 652.043546 370.429681c-78.059843 0-141.570319 63.511499-141.570319 141.570319s63.511499 141.570319 141.570319 141.570319l239.581564 0 0 98.010221c0 30.033014-24.428366 54.450123-54.450123 54.450123L183.77249 806.030663c-30.021757 0-54.450123-24.417109-54.450123-54.450123L129.322367 272.418436c0-30.033014 24.428366-54.450123 54.450123-54.450123l653.402497 0c30.021757 0 54.450123 24.417109 54.450123 54.450123L891.62511 370.429681zM619.373473 512c0 24.057929 19.50217 43.560098 43.560098 43.560098 24.057929 0 43.560098-19.50217 43.560098-43.560098s-19.50217-43.560098-43.560098-43.560098C638.876666 468.439902 619.373473 487.942071 619.373473 512z" p-id="12116"></path></svg>