<?xml version="1.0" standalone="no"?><!DOCTYPE svg PUBLIC "-//W3C//DTD SVG 1.1//EN" "http://www.w3.org/Graphics/SVG/1.1/DTD/svg11.dtd"><svg t="1514537109675" class="icon" style="" viewBox="0 0 1024 1024" version="1.1" xmlns="http://www.w3.org/2000/svg" p-id="2754" xmlns:xlink="http://www.w3.org/1999/xlink" width="200" height="200"><defs><style type="text/css"></style></defs><path d="M579.52785 511.55671a24.676479 24.676479 0 0 0-23.346609 24.233189 24.233189 24.233189 0 0 0 23.346609 21.721212c17.583838 0 29.55267-10.786724 29.552669-21.721212a27.040693 27.040693 0 0 0-29.552669-24.233189zM502.395382 398.961039a27.779509 27.779509 0 0 0 29.55267-29.55267 27.336219 27.336219 0 0 0-29.55267-29.552669 31.32583 31.32583 0 0 0-34.133333 29.552669A31.916883 31.916883 0 0 0 502.395382 398.961039z" fill="" p-id="2755"></path><path d="M512 0A512 512 0 1 0 1024 512 512 512 0 0 0 512 0zM415.215007 641.736219a275.87417 275.87417 0 0 1-82.599711-13.298701l-84.225108 42.555844 24.233189-71.665223c-59.105339-41.669264-94.273016-94.273016-94.273016-158.550073 0-113.482251 106.8329-200.219336 236.421356-200.219336 115.107648 0 217.655411 68.41443 237.751227 165.199423a116.141991 116.141991 0 0 0-22.460029-2.511977C517.171717 403.098413 429.400289 487.619048 429.400289 591.053391a200.958153 200.958153 0 0 0 6.64935 50.091775 174.508514 174.508514 0 0 1-20.834632 0.88658zM763.049928 724.040404l16.697258 59.105339-63.390476-35.463203a359.508225 359.508225 0 0 1-71.665224 12.559884c-111.709091 0-200.219336-76.689177-200.219336-171.848773s88.658009-171.848773 200.219336-171.848774c105.94632 0 200.958153 76.689177 200.958153 171.848774 0 53.342569-35.906494 100.922367-82.599711 135.203463z" fill="" p-id="2756"></path><path d="M337.63925 339.8557a32.951227 32.951227 0 0 0-35.906494 29.552669 33.54228 33.54228 0 0 0 35.906494 29.55267 28.666089 28.666089 0 0 0 29.552669-29.55267 28.222799 28.222799 0 0 0-29.552669-29.552669zM710.446176 511.55671a24.085426 24.085426 0 0 0-23.346609 24.233189 23.642136 23.642136 0 0 0 23.346609 21.721212 26.745166 26.745166 0 0 0 29.55267-21.721212 26.745166 26.745166 0 0 0-29.55267-24.233189z" fill="" p-id="2757"></path></svg>